<?xml version="1.0" encoding="UTF-8"?>
<svg width="217" height="46" viewBox="0 0 217 46" fill="none" xmlns="http://www.w3.org/2000/svg">
    <!-- Medical Cross Symbol (similar to original P shape) -->
    <path d="M22.9997 0C35.7026 0 45.9997 10.2971 45.9997 23V39.1C45.9997 40.93 45.2728 42.685 43.9788 43.979C42.6848 45.273 40.9297 46 39.0997 46H24.1497V35.9099C24.1497 33.6076 24.29 31.2225 25.4975 29.2629C26.362 27.8586 27.5185 26.6566 28.8884 25.7385C30.2583 24.8204 31.8096 24.2077 33.4371 23.9419L33.8776 23.8706C34.0592 23.8085 34.2168 23.6912 34.3284 23.5351C34.44 23.379 34.5 23.1919 34.5 23C34.5 22.8081 34.44 22.621 34.3284 22.4649C34.2168 22.3088 34.0592 22.1915 33.8776 22.1294L33.4371 22.0581C31.0591 21.6697 28.8632 20.5441 27.1594 18.8403C25.4556 17.1365 24.3301 14.9406 23.9416 12.5626L23.8703 12.1222C23.8082 11.9406 23.6909 11.7829 23.5348 11.6713C23.3787 11.5597 23.1916 11.4997 22.9997 11.4997C22.8078 11.4997 22.6208 11.5597 22.4647 11.6713C22.3086 11.7829 22.1913 11.9406 22.1292 12.1222L22.0579 12.5626C21.7922 14.1902 21.1795 15.7415 20.2614 17.1114C19.3433 18.4814 18.1412 19.6378 16.7368 20.5022C14.7772 21.7097 12.3921 21.85 10.0898 21.85H0.0273438C0.628794 9.68185 10.6832 0 22.9997 0Z" fill="#5F6FFF"/>
    <path d="M0 24.15H10.0901C12.3924 24.15 14.7775 24.2903 16.7371 25.4978C18.2689 26.4417 19.5583 27.7311 20.5022 29.2629C21.7097 31.2225 21.85 33.6076 21.85 35.9099V46H6.9C5.07001 46 3.31496 45.273 2.02096 43.979C0.726962 42.685 0 40.93 0 39.1L0 24.15Z" fill="#5F6FFF"/>
    
    <!-- QuickConsult Text (matching original text style and positioning) -->
    <path d="M62.848 37V13.098H106.931L105.129 28.398C105.084 27.4233 104.902 26.6073 104.585 25.95C104.29 25.2927 103.848 24.794 103.259 24.454C102.692 24.0913 101.99 23.91 101.151 23.91C100.267 23.91 99.4962 24.114 98.8389 24.522C98.1815 24.9073 97.6715 25.4627 97.3089 26.188C96.9689 26.8907 96.7989 27.7293 96.7989 28.704C96.7989 29.7013 96.9802 30.574 97.3429 31.322C97.7282 32.0473 98.2722 32.614 98.9749 33.022C99.6775 33.4073 100.494 33.6 101.423 33.6C102.262 33.6 103.021 33.464 103.701 33.192C104.381 32.8973 104.97 32.4667 105.469 31.9L108.087 34.518C107.294 35.4473 106.319 36.15 105.163 36.626C104.03 37.102 102.794 37.34 101.457 37.34H62.848Z" fill="#000B6D"/>
    
    <!-- 24/7 Text -->
    <path d="M175.529 37.34C174.351 37.34 173.285 37.102 172.333 36.626C171.381 36.1273 170.622 35.4587 170.055 34.62C169.489 33.7813 169.183 32.818 169.137 31.73V25.916C169.183 24.828 169.489 23.8647 170.055 23.026C170.645 22.1647 171.404 21.4847 172.333 20.986C173.285 20.4873 174.351 20.238 175.529 20.238C177.048 20.238 178.408 20.612 179.609 21.36C180.811 22.108 181.751 23.128 182.431 24.42C183.134 25.712 183.485 27.174 183.485 28.806Z" fill="#000B6D"/>

    <!-- Text content -->
    <text x="62" y="30" font-family="sans-serif" font-size="24" font-weight="600" fill="#000B6D">QuickConsult</text>
    <text x="175" y="30" font-family="sans-serif" font-size="20" font-weight="600" fill="#000B6D">24/7</text>
</svg>